<?xml version="1.0" standalone="no"?>
<!DOCTYPE svg PUBLIC "-//W3C//DTD SVG 20010904//EN"
 "http://www.w3.org/TR/2001/REC-SVG-20010904/DTD/svg10.dtd">
<svg version="1.0" xmlns="http://www.w3.org/2000/svg"
 width="666.000000pt" height="305.000000pt" viewBox="0 0 666.000000 305.000000"
 preserveAspectRatio="xMidYMid meet">

<g transform="translate(0.000000,305.000000) scale(0.100000,-0.100000)"
fill="#000000" stroke="none">
<path d="M0 1525 l0 -1525 3330 0 3330 0 0 1525 0 1525 -3330 0 -3330 0 0
-1525z m2245 1255 c-22 -4 -74 -15 -116 -24 -42 -8 -137 -22 -210 -31 -170
-20 -264 -37 -469 -85 -309 -72 -517 -161 -656 -280 -165 -142 -254 -317 -254
-499 0 -91 14 -161 32 -161 6 0 66 18 133 39 125 40 337 92 371 90 11 0 -34
-13 -98 -29 -126 -30 -210 -56 -331 -102 -90 -34 -89 -30 -39 -143 82 -189
257 -389 498 -571 199 -149 466 -291 801 -425 101 -40 181 -74 179 -76 -6 -6
-249 68 -382 118 -427 159 -758 361 -1014 619 -108 109 -182 208 -226 304 -14
31 -29 58 -33 61 -14 8 -123 -69 -178 -126 -28 -30 -68 -81 -87 -113 -44 -74
-47 -64 -5 15 31 58 88 122 202 227 l58 54 -6 76 c-12 128 7 218 75 357 64
132 119 205 225 296 264 229 654 371 1120 408 130 11 464 11 410 1z m2580 -1
c421 -36 768 -145 1015 -317 167 -117 264 -226 337 -380 55 -115 72 -208 61
-336 -9 -102 -4 -116 59 -163 44 -32 180 -168 193 -192 4 -9 -31 22 -78 69
-48 47 -110 98 -139 113 l-52 28 -45 -88 c-144 -276 -461 -556 -861 -759 -197
-99 -547 -233 -675 -258 -54 -11 -22 5 160 79 359 145 599 277 825 453 111 87
285 269 348 364 56 83 127 230 127 261 0 16 -37 33 -185 83 -132 45 -240 71
-415 100 -112 18 -128 22 -70 19 155 -11 360 -55 554 -120 60 -20 114 -34 121
-31 30 11 36 208 9 302 -57 201 -224 386 -469 519 -212 116 -494 188 -920 235
-99 12 -184 22 -190 25 -21 8 176 4 290 -6z m-2410 -15 c-9 -9 -14 -23 -10
-32 3 -8 -2 -69 -10 -135 -9 -66 -14 -126 -11 -133 3 -7 -4 -84 -15 -171 -37
-291 -7 -369 179 -466 78 -41 457 -199 521 -218 40 -12 41 -13 20 -21 -30 -12
-94 4 -239 58 -242 90 -355 142 -395 181 -31 31 -81 49 -99 34 -7 -6 -16 -7
-21 -3 -11 10 30 -69 48 -93 14 -18 13 -22 -9 -42 -15 -14 -24 -33 -24 -51 0
-20 -8 -35 -24 -45 -13 -9 -30 -33 -37 -54 -6 -21 -20 -51 -30 -68 -11 -16
-19 -37 -19 -47 0 -9 -3 -18 -7 -20 -11 -4 -53 -65 -53 -77 0 -5 -7 -11 -15
-15 -8 -3 -15 -12 -15 -20 0 -8 -3 -16 -7 -18 -10 -4 -53 -65 -53 -75 0 -4 12
8 28 26 15 19 37 45 50 60 37 43 114 161 154 236 55 102 46 53 -9 -57 -26 -51
-50 -95 -53 -98 -3 -3 -11 -15 -17 -27 -7 -13 -18 -32 -25 -43 -7 -10 -8 -23
-4 -27 5 -4 11 -2 13 5 3 7 11 19 19 26 8 8 14 20 14 27 0 7 7 4 18 -7 9 -10
22 -20 27 -21 37 -8 90 -33 93 -43 5 -13 -10 -10 -96 21 -84 30 -52 -10 33
-43 17 -6 36 -12 44 -14 8 -1 17 -6 20 -11 5 -7 17 -12 46 -17 24 -4 47 -24
41 -35 -5 -8 -15 -7 -36 4 -17 9 -33 16 -37 16 -5 1 -26 10 -48 22 -22 11 -42
19 -45 19 -3 -1 -22 3 -44 9 -93 25 -15 -16 137 -71 31 -12 57 -25 57 -29 0
-3 10 -8 23 -9 12 -1 60 -18 107 -38 47 -19 105 -43 130 -51 25 -8 48 -18 53
-22 11 -11 -141 -164 -199 -201 -59 -37 -167 -72 -209 -67 -25 4 -419 151
-535 200 -46 20 -84 58 -110 111 -26 54 -43 192 -35 276 19 195 37 301 80 469
20 75 32 144 29 157 -6 25 5 31 22 14 7 -7 24 25 54 102 151 392 369 677 518
678 31 0 32 -1 17 -16z m1945 -81 c0 -2 -4 -3 -10 -3 -5 0 -10 6 -10 14 0 7
-7 19 -15 26 -8 7 -15 17 -15 23 0 6 11 -4 25 -23 14 -19 25 -35 25 -37z
m-1764 0 c-3 -8 -2 -11 3 -8 5 3 12 1 16 -5 3 -5 -3 -10 -14 -10 -16 0 -21 6
-21 26 0 15 4 23 11 19 6 -4 8 -14 5 -22z m1698 -62 c-3 -22 1 -54 11 -81 20
-56 47 -287 45 -395 0 -56 -5 -84 -15 -95 -13 -12 -15 -8 -15 35 0 57 -15 239
-36 435 -8 74 -14 144 -14 155 1 20 1 20 15 1 10 -13 13 -32 9 -55z m48 17 c5
-46 4 -68 -5 -65 -6 2 -11 10 -13 18 -1 7 -3 19 -4 24 -4 19 0 35 10 35 6 0
11 -6 12 -12z m83 -22 c11 -19 23 -32 29 -29 5 4 7 -4 3 -18 -4 -13 -7 -34 -7
-46 0 -13 -4 -23 -8 -23 -11 0 -40 63 -51 110 -11 51 8 54 34 6z m-1676 15
c14 -4 26 -11 28 -17 5 -14 -120 -5 -129 10 -6 8 -8 8 -8 0 0 -9 -86 -30 -98
-25 -2 1 -11 -8 -20 -20 -17 -20 -19 -20 -32 -3 -8 10 -10 15 -3 11 6 -4 13
-2 15 3 2 6 13 12 26 13 12 0 22 7 22 13 0 7 8 15 18 17 26 7 154 6 181 -2z
m1371 -96 c0 -7 -206 -244 -230 -266 -15 -13 -16 -19 -6 -30 17 -18 156 -372
156 -395 0 -9 -171 -86 -177 -80 -4 3 -10 99 -15 213 -5 115 -13 215 -18 224
-4 8 -5 28 -2 44 4 25 6 26 12 10 6 -17 9 -15 31 16 31 46 232 269 242 269 4
0 7 -2 7 -5z m-1075 -67 c30 -29 55 -57 55 -61 0 -4 11 -18 25 -30 13 -12 26
-29 27 -37 2 -8 8 -18 13 -22 6 -5 6 -8 -2 -8 -6 0 -26 19 -43 43 -18 23 -62
70 -99 104 -43 41 -60 63 -49 63 10 0 42 -24 73 -52z m1535 21 c15 -28 5 -23
-15 7 -9 15 -12 23 -6 20 6 -4 16 -16 21 -27z m-1484 -18 c-13 -20 -26 -12
-24 14 2 21 4 23 16 11 8 -8 11 -19 8 -25z m1444 15 c0 -8 -6 -18 -13 -25 -11
-8 -13 -5 -9 19 4 29 22 33 22 6z m-1404 -38 c13 -16 14 -19 2 -10 -11 9 -18
10 -23 2 -3 -5 -10 -10 -16 -10 -5 0 -4 9 3 20 7 11 13 20 14 20 0 0 9 -10 20
-22z m1284 -163 c25 -275 24 -351 -4 -391 -12 -16 -13 -12 -11 33 1 28 5 55 8
60 10 17 7 106 -8 228 -21 160 -22 184 -10 190 6 3 5 7 -2 11 -14 6 -17 36 -5
48 11 11 19 -34 32 -179z m-1674 140 c8 -8 19 -39 25 -69 7 -33 23 -68 39 -88
25 -30 30 -32 51 -20 13 6 70 21 126 32 56 11 109 23 117 26 8 3 17 1 21 -5 3
-6 17 -9 31 -6 13 3 35 7 49 10 l25 5 -1 -117 c-1 -91 -3 -111 -10 -85 -5 17
-14 32 -19 32 -6 0 -9 3 -8 8 2 4 -8 35 -20 70 -19 51 -27 62 -40 56 -9 -3
-28 -9 -42 -11 -74 -13 -70 -10 -54 -48 15 -38 19 -95 5 -95 -4 0 -30 24 -58
53 l-49 52 -65 -8 c-35 -4 -71 -15 -79 -23 -13 -14 -13 -17 8 -31 19 -13 22
-24 22 -79 l0 -65 -28 15 c-54 28 -128 104 -157 163 -51 100 -36 193 36 230
32 17 57 16 75 -2z m1928 -86 c-6 -11 -24 -2 -24 11 0 5 7 7 15 4 8 -4 12 -10
9 -15z m-2214 -57 c0 -8 18 -53 40 -99 48 -98 140 -202 237 -266 l63 -41 0
-53 c0 -29 -2 -53 -4 -53 -8 0 -203 83 -246 105 -65 33 -115 91 -136 154 -15
48 -16 65 -4 184 13 130 13 130 31 108 11 -13 19 -30 19 -39z m1290 -23 c47
-10 61 -21 42 -33 -12 -7 -132 25 -132 35 0 12 28 11 90 -2z m917 -11 c-3 -8
-6 -5 -6 6 -1 11 2 17 5 13 3 -3 4 -12 1 -19z m-1337 -32 c13 -23 13 -28 0
-36 -17 -10 -23 -2 -34 43 -9 37 12 32 34 -7z m303 27 c-7 -2 -21 -2 -30 0
-10 3 -4 5 12 5 17 0 24 -2 18 -5z m1095 -38 c-3 -3 -9 2 -12 12 -6 14 -5 15
5 6 7 -7 10 -15 7 -18z m-615 -2 c-13 -2 -35 -2 -50 0 -16 2 -5 4 22 4 28 0
40 -2 28 -4z m95 -10 c-10 -2 -28 -2 -40 0 -13 2 -5 4 17 4 22 1 32 -1 23 -4z
m-108 -238 l54 -60 -67 65 c-37 35 -67 69 -67 74 0 6 6 4 13 -4 8 -8 38 -42
67 -75z m751 -50 c5 4 9 2 9 -3 0 -15 -22 -19 -55 -11 -24 5 -25 7 -7 8 14 1
22 7 22 19 1 16 1 16 11 -1 6 -9 14 -15 20 -12z m-767 -31 c5 -14 4 -15 -9 -4
-17 14 -19 20 -6 20 5 0 12 -7 15 -16z m1149 -1 c-7 -2 -19 -2 -25 0 -7 3 -2
5 12 5 14 0 19 -2 13 -5z m-2068 -13 c7 -12 -12 -40 -27 -40 -5 0 -6 6 -3 13
4 6 0 4 -8 -5 -8 -10 -17 -15 -20 -11 -4 3 -7 -2 -7 -12 0 -15 -2 -16 -17 -4
-15 12 -16 12 -8 -1 6 -12 5 -12 -5 -3 -14 13 -5 34 13 32 26 -3 37 2 37 16 0
9 6 12 17 8 11 -4 14 -3 9 5 -4 7 -3 12 3 12 5 0 13 -5 16 -10z m2173 3 c-10
-2 -26 -2 -35 0 -10 3 -2 5 17 5 19 0 27 -2 18 -5z m-4045 -10 c-7 -2 -21 -2
-30 0 -10 3 -4 5 12 5 17 0 24 -2 18 -5z m2896 -10 c-29 -35 -472 -225 -554
-238 l-40 -6 50 20 c28 11 83 33 123 50 148 63 218 93 267 111 28 11 73 33
100 49 57 34 73 38 54 14z m-2961 0 c-10 -2 -28 -2 -40 0 -13 2 -5 4 17 4 22
1 32 -1 23 -4z m1170 -23 c37 -34 39 -40 13 -40 -11 0 -29 13 -40 29 -36 51
-23 56 27 11z m-1255 13 c-7 -2 -21 -2 -30 0 -10 3 -4 5 12 5 17 0 24 -2 18
-5z m1847 -33 c0 -11 -2 -20 -4 -20 -2 0 -6 9 -9 20 -3 11 -1 20 4 20 5 0 9
-9 9 -20z m30 -13 c0 -5 -4 -5 -10 -2 -5 3 -10 14 -10 23 0 15 2 15 10 2 5 -8
10 -19 10 -23z m30 13 c0 -5 -2 -10 -4 -10 -3 0 -8 5 -11 10 -3 6 -1 10 4 10
6 0 11 -4 11 -10z m96 -54 c21 -34 15 -70 -13 -74 -27 -4 -74 39 -72 65 1 14
2 14 5 3 5 -18 43 -44 52 -36 3 3 0 17 -6 30 -18 41 8 50 34 12z m1191 -38
c-3 -8 -6 -5 -6 6 -1 11 2 17 5 13 3 -3 4 -12 1 -19z m-1100 -105 c-8 -15 -25
-37 -37 -48 l-23 -20 18 35 c29 56 49 84 53 72 2 -6 -3 -23 -11 -39z m-857
-123 c12 -7 10 -9 -8 -7 -12 0 -22 5 -22 9 0 11 12 10 30 -2z m701 -37 c-10
-21 -28 -47 -40 -57 -21 -19 -21 -19 -21 1 0 67 15 89 63 92 16 1 16 -1 -2
-36z m-731 -13 c0 -5 -5 -10 -11 -10 -5 0 -7 5 -4 10 3 6 8 10 11 10 2 0 4 -4
4 -10z m-40 -36 c0 -8 5 -12 10 -9 6 3 10 1 10 -5 0 -6 5 -8 10 -5 6 3 10 1
10 -5 0 -6 4 -9 9 -5 12 7 61 -15 61 -27 0 -5 -9 -4 -20 2 -11 6 -20 8 -20 5
0 -3 -13 1 -30 10 -16 8 -32 15 -35 15 -29 -1 -33 2 -28 20 6 24 23 27 23 4z
m255 -54 c3 -6 -1 -7 -9 -4 -18 7 -21 14 -7 14 6 0 13 -4 16 -10z m-73 -25
c12 -3 26 -9 32 -15 6 -6 -1 -6 -24 0 -19 5 -38 15 -44 21 -8 9 -8 10 1 5 7
-4 23 -9 35 -11z m-62 -30 c4 3 10 -2 14 -10 3 -9 0 -15 -9 -15 -8 0 -15 2
-15 4 0 2 -2 10 -3 18 -2 7 -2 10 0 5 3 -4 8 -5 13 -2z m54 -23 c3 -5 -1 -9
-9 -9 -8 0 -15 4 -15 9 0 4 4 8 9 8 6 0 12 -4 15 -8z m136 -2 c0 -5 -2 -10 -4
-10 -3 0 -8 5 -11 10 -3 6 -1 10 4 10 6 0 11 -4 11 -10z m-90 -20 c0 -5 -9
-10 -21 -10 -11 0 -17 5 -14 10 3 6 13 10 21 10 8 0 14 -4 14 -10z m54 -13 c3
3 6 0 6 -7 0 -7 3 -11 6 -7 3 3 25 -3 49 -13 24 -10 46 -16 49 -13 3 4 6 1 6
-5 0 -7 7 -12 15 -12 8 0 15 -4 15 -8 0 -5 6 -9 13 -10 22 -1 55 -10 75 -21
11 -6 22 -7 26 -3 4 3 4 -2 0 -11 -4 -12 -12 -16 -23 -11 -9 3 -24 9 -33 11
-10 3 -18 8 -18 12 0 4 -10 7 -22 8 -11 1 -24 6 -27 10 -3 4 -13 9 -21 11 -8
2 -35 12 -60 24 -25 11 -51 21 -57 21 -7 0 -13 4 -13 9 0 4 -5 7 -11 6 -6 -2
-14 3 -16 10 -4 11 -1 12 15 3 10 -6 22 -7 26 -4z m172 -23 c18 -15 18 -15 -2
-5 -12 6 -24 7 -28 4 -3 -3 -6 -1 -6 5 0 16 12 15 36 -4z m-182 -28 c30 -13
57 -22 60 -18 3 3 6 1 6 -4 0 -5 20 -16 45 -23 25 -7 45 -17 45 -22 0 -5 3 -8
8 -7 12 4 72 -24 72 -33 0 -13 -14 -11 -63 10 -25 11 -48 17 -51 14 -3 -4 -6
-1 -6 5 0 7 -3 11 -7 10 -5 -1 -17 3 -28 9 -11 6 -22 11 -25 11 -17 -2 -49 15
-45 23 3 5 -1 6 -10 3 -8 -4 -22 -1 -30 6 -8 7 -15 9 -15 6 0 -4 -9 -2 -20 4
-20 10 -19 30 0 30 5 0 34 -11 64 -24z m256 4 c0 -5 5 -9 11 -7 6 1 13 -3 16
-10 3 -9 -3 -9 -26 0 -33 12 -41 27 -16 27 8 0 15 -4 15 -10z m2056 -129 c-11
-17 -75 -41 -110 -41 -21 0 -69 -15 -112 -35 -41 -19 -78 -35 -82 -35 -5 0
-66 -23 -136 -51 -70 -28 -130 -49 -132 -46 -2 2 74 34 168 72 193 75 248 102
242 119 -2 6 6 11 20 11 13 0 22 -3 20 -6 -5 -9 88 2 106 12 19 11 22 11 16 0z
m-97 -76 c-6 -5 -307 -120 -392 -150 -43 -14 -83 -24 -90 -22 -7 3 -6 6 4 6
22 1 366 133 427 164 26 13 49 20 51 15 1 -5 1 -11 0 -13z m-499 -65 c-8 -5
-19 -10 -25 -10 -5 0 -3 5 5 10 8 5 20 10 25 10 6 0 3 -5 -5 -10z m-123 -46
c-3 -3 -12 -4 -19 -1 -8 3 -5 6 6 6 11 1 17 -2 13 -5z m113 -39 c-14 -8 -38
-14 -55 -14 -26 1 -24 2 15 13 61 18 70 18 40 1z"/>
<path d="M2093 2190 c2 -10 18 -15 52 -16 47 -2 48 -1 19 11 -17 7 -31 8 -35
3 -9 -13 -20 -12 -31 4 -8 10 -9 10 -5 -2z"/>
<path d="M2220 2190 c-9 -6 -10 -10 -3 -10 6 0 15 5 18 10 8 12 4 12 -15 0z"/>
<path d="M1990 2178 c0 -5 11 -13 25 -18 14 -5 25 -14 25 -20 0 -6 -11 -5 -28
4 -33 17 -64 15 -70 -4 -3 -7 0 -10 6 -7 5 4 15 1 21 -6 8 -11 4 -13 -22 -10
-17 2 -26 0 -19 -3 6 -3 12 -14 12 -24 0 -14 -5 -17 -22 -13 -13 3 -20 3 -16
-2 4 -4 0 -14 -8 -22 -8 -9 -13 -22 -10 -30 3 -8 1 -11 -4 -8 -6 3 -10 -1 -10
-9 0 -24 -1 -30 -11 -49 -8 -14 -5 -19 16 -27 15 -6 40 -9 56 -8 l30 2 -23 18
c-13 9 -16 15 -8 13 38 -8 60 -18 60 -26 0 -5 3 -8 8 -7 10 3 102 -23 106 -31
2 -3 -37 -7 -87 -8 -51 0 -115 -2 -142 -2 l-51 -1 -16 -57 c-9 -32 -19 -76
-22 -98 -3 -22 -13 -71 -23 -110 -23 -95 -23 -308 0 -385 34 -112 84 -137 170
-87 88 52 227 228 332 419 32 60 35 71 26 103 -6 22 -6 47 0 68 14 49 11 76
-11 107 -38 54 -52 111 -54 219 -1 74 -5 106 -13 109 -7 2 -13 -1 -13 -7 0 -7
-8 -7 -26 -1 -14 6 -35 8 -48 4 -12 -3 -34 -1 -48 5 -18 7 -28 7 -30 0 -2 -6
-11 -7 -21 -4 -9 4 -15 10 -12 14 2 4 -2 8 -10 8 -8 0 -15 -4 -15 -9z m170
-28 c8 -5 11 -10 5 -10 -5 0 -17 5 -25 10 -8 5 -10 10 -5 10 6 0 17 -5 25 -10z
m-63 -19 c0 -11 -5 -18 -9 -15 -4 3 -5 11 -1 19 7 21 12 19 10 -4z m-27 -1 c0
-5 -2 -10 -4 -10 -3 0 -8 5 -11 10 -3 6 -1 10 4 10 6 0 11 -4 11 -10z m5 -30
c3 -6 -1 -7 -9 -4 -18 7 -21 14 -7 14 6 0 13 -4 16 -10z"/>
<path d="M2280 2017 c0 -30 84 -136 98 -123 9 9 -27 74 -59 109 -38 40 -39 40
-39 14z"/>
<path d="M2216 1222 c5 -5 45 -23 89 -41 44 -19 91 -38 105 -44 14 -5 30 -11
35 -13 26 -7 195 -74 237 -93 26 -11 55 -21 65 -20 11 0 4 6 -17 16 -19 8 -53
23 -75 33 -22 10 -67 28 -100 40 -33 12 -72 28 -87 36 -16 8 -28 13 -28 10 0
-3 -24 5 -52 18 -58 25 -85 35 -93 36 -3 0 -18 6 -35 15 -31 16 -60 21 -44 7z"/>
<path d="M2216 1170 c10 -10 114 -51 169 -67 31 -9 9 9 -28 23 -112 41 -150
53 -141 44z"/>
<path d="M2473 1070 c23 -15 134 -53 122 -42 -6 5 -30 16 -55 25 -25 8 -54 18
-65 22 -18 6 -18 5 -2 -5z"/>
<path d="M1820 1060 c8 -5 22 -9 30 -9 10 0 8 3 -5 9 -27 12 -43 12 -25 0z"/>
<path d="M2398 1053 c7 -3 16 -2 19 1 4 3 -2 6 -13 5 -11 0 -14 -3 -6 -6z"/>
<path d="M2641 1006 c2 -2 14 -9 26 -15 19 -10 22 -9 17 4 -4 8 -15 15 -27 15
-11 0 -18 -2 -16 -4z"/>
<path d="M3000 2272 c-63 -13 -117 -26 -119 -28 -16 -15 21 -13 101 5 149 35
153 36 143 42 -6 3 -62 -5 -125 -19z"/>
</g>
</svg>
